<mxfile host="app.diagrams.net" modified="2023-06-27T07:56:57.802Z" agent="5.0 (Windows NT 10.0; Win64; x64) AppleWebKit/537.36 (KHTML, like Gecko) Chrome/114.0.0.0 Safari/537.36" etag="p-9vMM88myipPiYRqyGL" version="20.8.5" type="github">
  <diagram id="39WaOKa6IrrpF5gtP87V" name="Page-1">
    <mxGraphModel dx="3407" dy="1100" grid="1" gridSize="10" guides="1" tooltips="1" connect="1" arrows="1" fold="1" page="1" pageScale="1" pageWidth="827" pageHeight="1169" math="0" shadow="0">
      <root>
        <mxCell id="0" />
        <mxCell id="1" parent="0" />
        <mxCell id="a6gMRe6n2UuClTH7hhEL-1" value="Start" style="ellipse;whiteSpace=wrap;html=1;" parent="1" vertex="1">
          <mxGeometry x="270" y="60" width="120" height="80" as="geometry" />
        </mxCell>
        <mxCell id="a6gMRe6n2UuClTH7hhEL-2" value="" style="endArrow=classic;html=1;rounded=0;" parent="1" edge="1">
          <mxGeometry width="50" height="50" relative="1" as="geometry">
            <mxPoint x="330" y="140" as="sourcePoint" />
            <mxPoint x="330" y="190" as="targetPoint" />
          </mxGeometry>
        </mxCell>
        <mxCell id="a6gMRe6n2UuClTH7hhEL-3" value="Login patient" style="rounded=0;whiteSpace=wrap;html=1;" parent="1" vertex="1">
          <mxGeometry x="420" y="270" width="120" height="60" as="geometry" />
        </mxCell>
        <mxCell id="a6gMRe6n2UuClTH7hhEL-6" value="Patient?" style="rhombus;whiteSpace=wrap;html=1;" parent="1" vertex="1">
          <mxGeometry x="275" y="190" width="110" height="80" as="geometry" />
        </mxCell>
        <mxCell id="a6gMRe6n2UuClTH7hhEL-8" value="" style="endArrow=classic;html=1;rounded=0;entryX=0.5;entryY=0;entryDx=0;entryDy=0;exitX=0;exitY=0.5;exitDx=0;exitDy=0;edgeStyle=orthogonalEdgeStyle;" parent="1" source="a6gMRe6n2UuClTH7hhEL-6" target="a6gMRe6n2UuClTH7hhEL-10" edge="1">
          <mxGeometry width="50" height="50" relative="1" as="geometry">
            <mxPoint x="220" y="360" as="sourcePoint" />
            <mxPoint x="170" y="410" as="targetPoint" />
          </mxGeometry>
        </mxCell>
        <mxCell id="a6gMRe6n2UuClTH7hhEL-9" value="No" style="text;html=1;strokeColor=none;fillColor=none;align=center;verticalAlign=middle;whiteSpace=wrap;rounded=0;" parent="1" vertex="1">
          <mxGeometry x="214" y="207" width="60" height="30" as="geometry" />
        </mxCell>
        <mxCell id="a6gMRe6n2UuClTH7hhEL-10" value="Login" style="rounded=0;whiteSpace=wrap;html=1;" parent="1" vertex="1">
          <mxGeometry x="120" y="270" width="120" height="60" as="geometry" />
        </mxCell>
        <mxCell id="a6gMRe6n2UuClTH7hhEL-12" value="" style="endArrow=classic;html=1;rounded=0;entryX=0.5;entryY=0;entryDx=0;entryDy=0;exitX=0;exitY=0.5;exitDx=0;exitDy=0;edgeStyle=orthogonalEdgeStyle;" parent="1" target="a6gMRe6n2UuClTH7hhEL-3" edge="1">
          <mxGeometry width="50" height="50" relative="1" as="geometry">
            <mxPoint x="385" y="230" as="sourcePoint" />
            <mxPoint x="290" y="270" as="targetPoint" />
            <Array as="points">
              <mxPoint x="480" y="230" />
            </Array>
          </mxGeometry>
        </mxCell>
        <mxCell id="a6gMRe6n2UuClTH7hhEL-13" value="Yes" style="text;html=1;strokeColor=none;fillColor=none;align=center;verticalAlign=middle;whiteSpace=wrap;rounded=0;" parent="1" vertex="1">
          <mxGeometry x="420" y="207" width="60" height="30" as="geometry" />
        </mxCell>
        <mxCell id="a6gMRe6n2UuClTH7hhEL-14" value="View Profile" style="rounded=0;whiteSpace=wrap;html=1;" parent="1" vertex="1">
          <mxGeometry x="420" y="390" width="120" height="60" as="geometry" />
        </mxCell>
        <mxCell id="a6gMRe6n2UuClTH7hhEL-15" value="" style="endArrow=classic;html=1;rounded=0;exitX=0.5;exitY=1;exitDx=0;exitDy=0;entryX=0.5;entryY=0;entryDx=0;entryDy=0;" parent="1" source="a6gMRe6n2UuClTH7hhEL-3" target="a6gMRe6n2UuClTH7hhEL-14" edge="1">
          <mxGeometry width="50" height="50" relative="1" as="geometry">
            <mxPoint x="480" y="380" as="sourcePoint" />
            <mxPoint x="530" y="330" as="targetPoint" />
          </mxGeometry>
        </mxCell>
        <mxCell id="a6gMRe6n2UuClTH7hhEL-16" value="Edit profile?" style="rhombus;whiteSpace=wrap;html=1;" parent="1" vertex="1">
          <mxGeometry x="630" y="380" width="110" height="80" as="geometry" />
        </mxCell>
        <mxCell id="a6gMRe6n2UuClTH7hhEL-17" value="" style="endArrow=classic;html=1;rounded=0;entryX=0;entryY=0.5;entryDx=0;entryDy=0;" parent="1" target="a6gMRe6n2UuClTH7hhEL-16" edge="1">
          <mxGeometry width="50" height="50" relative="1" as="geometry">
            <mxPoint x="540" y="420" as="sourcePoint" />
            <mxPoint x="590" y="370" as="targetPoint" />
          </mxGeometry>
        </mxCell>
        <mxCell id="a6gMRe6n2UuClTH7hhEL-18" value="" style="endArrow=classic;html=1;rounded=0;entryX=1;entryY=0.5;entryDx=0;entryDy=0;" parent="1" target="a6gMRe6n2UuClTH7hhEL-24" edge="1">
          <mxGeometry width="50" height="50" relative="1" as="geometry">
            <mxPoint x="740" y="419.5" as="sourcePoint" />
            <mxPoint x="830" y="419.5" as="targetPoint" />
            <Array as="points">
              <mxPoint x="780" y="420" />
              <mxPoint x="780" y="630" />
              <mxPoint x="650" y="630" />
              <mxPoint x="590" y="630" />
              <mxPoint x="590" y="540" />
            </Array>
          </mxGeometry>
        </mxCell>
        <mxCell id="a6gMRe6n2UuClTH7hhEL-19" value="Yes" style="text;html=1;strokeColor=none;fillColor=none;align=center;verticalAlign=middle;whiteSpace=wrap;rounded=0;" parent="1" vertex="1">
          <mxGeometry x="635" y="450" width="60" height="30" as="geometry" />
        </mxCell>
        <mxCell id="a6gMRe6n2UuClTH7hhEL-20" value="No" style="text;html=1;strokeColor=none;fillColor=none;align=center;verticalAlign=middle;whiteSpace=wrap;rounded=0;" parent="1" vertex="1">
          <mxGeometry x="740" y="396" width="43" height="30" as="geometry" />
        </mxCell>
        <mxCell id="a6gMRe6n2UuClTH7hhEL-21" value="Change detail" style="shape=parallelogram;perimeter=parallelogramPerimeter;whiteSpace=wrap;html=1;fixedSize=1;" parent="1" vertex="1">
          <mxGeometry x="625" y="530" width="120" height="60" as="geometry" />
        </mxCell>
        <mxCell id="a6gMRe6n2UuClTH7hhEL-22" value="" style="endArrow=classic;html=1;rounded=0;exitX=0.5;exitY=1;exitDx=0;exitDy=0;entryX=0.5;entryY=0;entryDx=0;entryDy=0;" parent="1" source="a6gMRe6n2UuClTH7hhEL-16" target="a6gMRe6n2UuClTH7hhEL-21" edge="1">
          <mxGeometry width="50" height="50" relative="1" as="geometry">
            <mxPoint x="740" y="510" as="sourcePoint" />
            <mxPoint x="790" y="460" as="targetPoint" />
          </mxGeometry>
        </mxCell>
        <mxCell id="a6gMRe6n2UuClTH7hhEL-23" value="" style="endArrow=classic;html=1;rounded=0;exitX=0.5;exitY=1;exitDx=0;exitDy=0;entryX=0.5;entryY=0;entryDx=0;entryDy=0;" parent="1" edge="1">
          <mxGeometry width="50" height="50" relative="1" as="geometry">
            <mxPoint x="480" y="450" as="sourcePoint" />
            <mxPoint x="480" y="510" as="targetPoint" />
          </mxGeometry>
        </mxCell>
        <mxCell id="a6gMRe6n2UuClTH7hhEL-24" value="View History" style="rounded=0;whiteSpace=wrap;html=1;" parent="1" vertex="1">
          <mxGeometry x="420" y="510" width="120" height="60" as="geometry" />
        </mxCell>
        <mxCell id="a6gMRe6n2UuClTH7hhEL-27" value="" style="endArrow=classic;html=1;rounded=0;exitX=0.5;exitY=1;exitDx=0;exitDy=0;entryX=0.5;entryY=0;entryDx=0;entryDy=0;" parent="1" edge="1">
          <mxGeometry width="50" height="50" relative="1" as="geometry">
            <mxPoint x="480" y="570" as="sourcePoint" />
            <mxPoint x="480" y="630" as="targetPoint" />
          </mxGeometry>
        </mxCell>
        <mxCell id="a6gMRe6n2UuClTH7hhEL-28" value="Log out" style="rounded=0;whiteSpace=wrap;html=1;" parent="1" vertex="1">
          <mxGeometry x="420" y="630" width="120" height="60" as="geometry" />
        </mxCell>
        <mxCell id="ps8Fm_XayFuLvd-UC0Eb-1" value="View Hospital Profile" style="rounded=0;whiteSpace=wrap;html=1;" vertex="1" parent="1">
          <mxGeometry x="120" y="390" width="120" height="60" as="geometry" />
        </mxCell>
        <mxCell id="ps8Fm_XayFuLvd-UC0Eb-2" value="" style="endArrow=classic;html=1;rounded=0;exitX=0.5;exitY=1;exitDx=0;exitDy=0;entryX=0.5;entryY=0;entryDx=0;entryDy=0;" edge="1" parent="1">
          <mxGeometry width="50" height="50" relative="1" as="geometry">
            <mxPoint x="179.5" y="330" as="sourcePoint" />
            <mxPoint x="179.5" y="390" as="targetPoint" />
          </mxGeometry>
        </mxCell>
        <mxCell id="ps8Fm_XayFuLvd-UC0Eb-3" value="" style="endArrow=classic;html=1;rounded=0;exitX=0.5;exitY=1;exitDx=0;exitDy=0;entryX=0.5;entryY=0;entryDx=0;entryDy=0;" edge="1" parent="1" target="ps8Fm_XayFuLvd-UC0Eb-4">
          <mxGeometry width="50" height="50" relative="1" as="geometry">
            <mxPoint x="179.5" y="450" as="sourcePoint" />
            <mxPoint x="179.5" y="510" as="targetPoint" />
          </mxGeometry>
        </mxCell>
        <mxCell id="ps8Fm_XayFuLvd-UC0Eb-46" value="" style="edgeStyle=orthogonalEdgeStyle;rounded=0;orthogonalLoop=1;jettySize=auto;html=1;" edge="1" parent="1" source="ps8Fm_XayFuLvd-UC0Eb-4" target="ps8Fm_XayFuLvd-UC0Eb-42">
          <mxGeometry relative="1" as="geometry" />
        </mxCell>
        <mxCell id="ps8Fm_XayFuLvd-UC0Eb-120" style="edgeStyle=orthogonalEdgeStyle;rounded=0;orthogonalLoop=1;jettySize=auto;html=1;exitX=0;exitY=0.5;exitDx=0;exitDy=0;entryX=0.5;entryY=0;entryDx=0;entryDy=0;" edge="1" parent="1" source="ps8Fm_XayFuLvd-UC0Eb-4" target="ps8Fm_XayFuLvd-UC0Eb-10">
          <mxGeometry relative="1" as="geometry">
            <Array as="points">
              <mxPoint x="70" y="540" />
              <mxPoint x="70" y="140" />
              <mxPoint x="-106" y="140" />
            </Array>
          </mxGeometry>
        </mxCell>
        <mxCell id="ps8Fm_XayFuLvd-UC0Eb-4" value="View Patient&#39;s Detail" style="rounded=0;whiteSpace=wrap;html=1;" vertex="1" parent="1">
          <mxGeometry x="120" y="510" width="120" height="60" as="geometry" />
        </mxCell>
        <mxCell id="ps8Fm_XayFuLvd-UC0Eb-54" style="edgeStyle=orthogonalEdgeStyle;rounded=0;orthogonalLoop=1;jettySize=auto;html=1;exitX=1;exitY=0.5;exitDx=0;exitDy=0;entryX=0;entryY=0.75;entryDx=0;entryDy=0;" edge="1" parent="1" source="ps8Fm_XayFuLvd-UC0Eb-6" target="ps8Fm_XayFuLvd-UC0Eb-4">
          <mxGeometry relative="1" as="geometry">
            <mxPoint x="40" y="560" as="targetPoint" />
            <Array as="points">
              <mxPoint x="-280" y="420" />
              <mxPoint x="-280" y="615" />
              <mxPoint x="-26" y="615" />
              <mxPoint x="-26" y="555" />
            </Array>
          </mxGeometry>
        </mxCell>
        <mxCell id="ps8Fm_XayFuLvd-UC0Eb-6" value="Appointment?" style="rhombus;whiteSpace=wrap;html=1;" vertex="1" parent="1">
          <mxGeometry x="-498" y="380" width="100" height="80" as="geometry" />
        </mxCell>
        <mxCell id="ps8Fm_XayFuLvd-UC0Eb-7" value="" style="endArrow=classic;html=1;rounded=0;entryX=0.5;entryY=0;entryDx=0;entryDy=0;edgeStyle=orthogonalEdgeStyle;exitX=0;exitY=0.5;exitDx=0;exitDy=0;" edge="1" parent="1" source="ps8Fm_XayFuLvd-UC0Eb-16" target="ps8Fm_XayFuLvd-UC0Eb-6">
          <mxGeometry width="50" height="50" relative="1" as="geometry">
            <mxPoint x="-378" y="320" as="sourcePoint" />
            <mxPoint x="-448" y="370" as="targetPoint" />
            <Array as="points">
              <mxPoint x="-448" y="326" />
            </Array>
          </mxGeometry>
        </mxCell>
        <mxCell id="ps8Fm_XayFuLvd-UC0Eb-9" value="Check-up?" style="rhombus;whiteSpace=wrap;html=1;" vertex="1" parent="1">
          <mxGeometry x="-210" y="380" width="100" height="80" as="geometry" />
        </mxCell>
        <mxCell id="ps8Fm_XayFuLvd-UC0Eb-52" style="edgeStyle=orthogonalEdgeStyle;rounded=0;orthogonalLoop=1;jettySize=auto;html=1;exitX=0.5;exitY=1;exitDx=0;exitDy=0;entryX=0;entryY=0.75;entryDx=0;entryDy=0;" edge="1" parent="1" source="ps8Fm_XayFuLvd-UC0Eb-10" target="ps8Fm_XayFuLvd-UC0Eb-4">
          <mxGeometry relative="1" as="geometry">
            <mxPoint x="-26" y="275" as="targetPoint" />
            <Array as="points">
              <mxPoint x="-106" y="275" />
              <mxPoint x="40" y="275" />
              <mxPoint x="40" y="555" />
            </Array>
          </mxGeometry>
        </mxCell>
        <mxCell id="ps8Fm_XayFuLvd-UC0Eb-10" value="Search patient?" style="rhombus;whiteSpace=wrap;html=1;" vertex="1" parent="1">
          <mxGeometry x="-156" y="160" width="100" height="80" as="geometry" />
        </mxCell>
        <mxCell id="ps8Fm_XayFuLvd-UC0Eb-14" value="" style="endArrow=classic;html=1;rounded=0;exitX=0;exitY=0.5;exitDx=0;exitDy=0;edgeStyle=orthogonalEdgeStyle;entryX=0.5;entryY=0;entryDx=0;entryDy=0;" edge="1" parent="1" source="ps8Fm_XayFuLvd-UC0Eb-10" target="ps8Fm_XayFuLvd-UC0Eb-16">
          <mxGeometry width="50" height="50" relative="1" as="geometry">
            <mxPoint x="-328" y="255" as="sourcePoint" />
            <mxPoint x="-198" y="405" as="targetPoint" />
            <Array as="points">
              <mxPoint x="-306" y="200" />
              <mxPoint x="-306" y="280" />
            </Array>
          </mxGeometry>
        </mxCell>
        <mxCell id="ps8Fm_XayFuLvd-UC0Eb-16" value="Patient Details" style="rounded=0;whiteSpace=wrap;html=1;" vertex="1" parent="1">
          <mxGeometry x="-366" y="296" width="120" height="60" as="geometry" />
        </mxCell>
        <mxCell id="ps8Fm_XayFuLvd-UC0Eb-17" value="" style="endArrow=classic;html=1;rounded=0;entryX=0.5;entryY=0;entryDx=0;entryDy=0;edgeStyle=orthogonalEdgeStyle;" edge="1" parent="1" target="ps8Fm_XayFuLvd-UC0Eb-9">
          <mxGeometry width="50" height="50" relative="1" as="geometry">
            <mxPoint x="-246" y="325" as="sourcePoint" />
            <mxPoint x="-258" y="370" as="targetPoint" />
            <Array as="points">
              <mxPoint x="-246" y="326" />
              <mxPoint x="-160" y="326" />
            </Array>
          </mxGeometry>
        </mxCell>
        <mxCell id="ps8Fm_XayFuLvd-UC0Eb-56" style="edgeStyle=orthogonalEdgeStyle;rounded=0;orthogonalLoop=1;jettySize=auto;html=1;exitX=0.5;exitY=1;exitDx=0;exitDy=0;" edge="1" parent="1" source="ps8Fm_XayFuLvd-UC0Eb-19">
          <mxGeometry relative="1" as="geometry">
            <mxPoint x="-156" y="615" as="targetPoint" />
          </mxGeometry>
        </mxCell>
        <mxCell id="ps8Fm_XayFuLvd-UC0Eb-19" value="Insert Check-up Data" style="shape=parallelogram;perimeter=parallelogramPerimeter;whiteSpace=wrap;html=1;fixedSize=1;" vertex="1" parent="1">
          <mxGeometry x="-236" y="520" width="160" height="60" as="geometry" />
        </mxCell>
        <mxCell id="ps8Fm_XayFuLvd-UC0Eb-55" style="edgeStyle=orthogonalEdgeStyle;rounded=0;orthogonalLoop=1;jettySize=auto;html=1;entryX=0;entryY=0.75;entryDx=0;entryDy=0;exitX=0.5;exitY=1;exitDx=0;exitDy=0;" edge="1" parent="1" source="ps8Fm_XayFuLvd-UC0Eb-21" target="ps8Fm_XayFuLvd-UC0Eb-4">
          <mxGeometry relative="1" as="geometry">
            <mxPoint x="114" y="550" as="targetPoint" />
            <mxPoint x="-454" y="580" as="sourcePoint" />
            <Array as="points">
              <mxPoint x="-448" y="615" />
              <mxPoint x="-26" y="615" />
              <mxPoint x="-26" y="555" />
            </Array>
          </mxGeometry>
        </mxCell>
        <mxCell id="ps8Fm_XayFuLvd-UC0Eb-21" value="Insert Appointment Data" style="shape=parallelogram;perimeter=parallelogramPerimeter;whiteSpace=wrap;html=1;fixedSize=1;" vertex="1" parent="1">
          <mxGeometry x="-528" y="520" width="160" height="60" as="geometry" />
        </mxCell>
        <mxCell id="ps8Fm_XayFuLvd-UC0Eb-22" value="" style="endArrow=classic;html=1;rounded=0;entryX=0.5;entryY=0;entryDx=0;entryDy=0;" edge="1" parent="1" target="ps8Fm_XayFuLvd-UC0Eb-21">
          <mxGeometry width="50" height="50" relative="1" as="geometry">
            <mxPoint x="-448" y="460" as="sourcePoint" />
            <mxPoint x="-398" y="410" as="targetPoint" />
          </mxGeometry>
        </mxCell>
        <mxCell id="ps8Fm_XayFuLvd-UC0Eb-23" value="" style="endArrow=classic;html=1;rounded=0;" edge="1" parent="1">
          <mxGeometry width="50" height="50" relative="1" as="geometry">
            <mxPoint x="-160.5" y="460" as="sourcePoint" />
            <mxPoint x="-160" y="520" as="targetPoint" />
          </mxGeometry>
        </mxCell>
        <mxCell id="ps8Fm_XayFuLvd-UC0Eb-26" value="No" style="text;html=1;strokeColor=none;fillColor=none;align=center;verticalAlign=middle;whiteSpace=wrap;rounded=0;" vertex="1" parent="1">
          <mxGeometry x="-120" y="230" width="60" height="30" as="geometry" />
        </mxCell>
        <mxCell id="ps8Fm_XayFuLvd-UC0Eb-27" value="No" style="text;html=1;strokeColor=none;fillColor=none;align=center;verticalAlign=middle;whiteSpace=wrap;rounded=0;" vertex="1" parent="1">
          <mxGeometry x="-126" y="385" width="60" height="30" as="geometry" />
        </mxCell>
        <mxCell id="ps8Fm_XayFuLvd-UC0Eb-28" value="No" style="text;html=1;strokeColor=none;fillColor=none;align=center;verticalAlign=middle;whiteSpace=wrap;rounded=0;" vertex="1" parent="1">
          <mxGeometry x="-406" y="395" width="60" height="30" as="geometry" />
        </mxCell>
        <mxCell id="ps8Fm_XayFuLvd-UC0Eb-29" value="Yes" style="text;html=1;strokeColor=none;fillColor=none;align=center;verticalAlign=middle;whiteSpace=wrap;rounded=0;" vertex="1" parent="1">
          <mxGeometry x="-172" y="455" width="60" height="27" as="geometry" />
        </mxCell>
        <mxCell id="ps8Fm_XayFuLvd-UC0Eb-30" value="Yes" style="text;html=1;strokeColor=none;fillColor=none;align=center;verticalAlign=middle;whiteSpace=wrap;rounded=0;" vertex="1" parent="1">
          <mxGeometry x="-460" y="453" width="60" height="30" as="geometry" />
        </mxCell>
        <mxCell id="ps8Fm_XayFuLvd-UC0Eb-33" value="Yes" style="text;html=1;strokeColor=none;fillColor=none;align=center;verticalAlign=middle;whiteSpace=wrap;rounded=0;" vertex="1" parent="1">
          <mxGeometry x="-200" y="175" width="60" height="30" as="geometry" />
        </mxCell>
        <mxCell id="ps8Fm_XayFuLvd-UC0Eb-47" value="" style="edgeStyle=orthogonalEdgeStyle;rounded=0;orthogonalLoop=1;jettySize=auto;html=1;" edge="1" parent="1" source="ps8Fm_XayFuLvd-UC0Eb-42" target="ps8Fm_XayFuLvd-UC0Eb-44">
          <mxGeometry relative="1" as="geometry" />
        </mxCell>
        <mxCell id="ps8Fm_XayFuLvd-UC0Eb-75" style="edgeStyle=orthogonalEdgeStyle;rounded=0;orthogonalLoop=1;jettySize=auto;html=1;" edge="1" parent="1" source="ps8Fm_XayFuLvd-UC0Eb-42" target="ps8Fm_XayFuLvd-UC0Eb-61">
          <mxGeometry relative="1" as="geometry" />
        </mxCell>
        <mxCell id="ps8Fm_XayFuLvd-UC0Eb-42" value="View Appointment&lt;br&gt;Detail" style="rounded=0;whiteSpace=wrap;html=1;" vertex="1" parent="1">
          <mxGeometry x="120" y="650" width="120" height="60" as="geometry" />
        </mxCell>
        <mxCell id="ps8Fm_XayFuLvd-UC0Eb-48" value="" style="edgeStyle=orthogonalEdgeStyle;rounded=0;orthogonalLoop=1;jettySize=auto;html=1;" edge="1" parent="1" source="ps8Fm_XayFuLvd-UC0Eb-44" target="ps8Fm_XayFuLvd-UC0Eb-45">
          <mxGeometry relative="1" as="geometry" />
        </mxCell>
        <mxCell id="ps8Fm_XayFuLvd-UC0Eb-121" style="edgeStyle=orthogonalEdgeStyle;rounded=0;orthogonalLoop=1;jettySize=auto;html=1;exitX=0;exitY=0.5;exitDx=0;exitDy=0;" edge="1" parent="1" source="ps8Fm_XayFuLvd-UC0Eb-44" target="ps8Fm_XayFuLvd-UC0Eb-105">
          <mxGeometry relative="1" as="geometry" />
        </mxCell>
        <mxCell id="ps8Fm_XayFuLvd-UC0Eb-44" value="View Check-Up&lt;br&gt;Detail" style="rounded=0;whiteSpace=wrap;html=1;" vertex="1" parent="1">
          <mxGeometry x="120" y="780" width="120" height="60" as="geometry" />
        </mxCell>
        <mxCell id="ps8Fm_XayFuLvd-UC0Eb-45" value="Log out" style="rounded=0;whiteSpace=wrap;html=1;" vertex="1" parent="1">
          <mxGeometry x="120" y="932" width="120" height="60" as="geometry" />
        </mxCell>
        <mxCell id="ps8Fm_XayFuLvd-UC0Eb-51" value="" style="endArrow=classic;html=1;rounded=0;edgeStyle=orthogonalEdgeStyle;entryX=0;entryY=0.75;entryDx=0;entryDy=0;" edge="1" parent="1" target="ps8Fm_XayFuLvd-UC0Eb-4">
          <mxGeometry width="50" height="50" relative="1" as="geometry">
            <mxPoint x="-110" y="420" as="sourcePoint" />
            <mxPoint x="54" y="155" as="targetPoint" />
            <Array as="points">
              <mxPoint y="420" />
              <mxPoint y="555" />
            </Array>
          </mxGeometry>
        </mxCell>
        <mxCell id="ps8Fm_XayFuLvd-UC0Eb-132" style="edgeStyle=orthogonalEdgeStyle;rounded=0;orthogonalLoop=1;jettySize=auto;html=1;" edge="1" parent="1" source="ps8Fm_XayFuLvd-UC0Eb-57">
          <mxGeometry relative="1" as="geometry">
            <mxPoint x="520" y="1160" as="targetPoint" />
          </mxGeometry>
        </mxCell>
        <mxCell id="ps8Fm_XayFuLvd-UC0Eb-57" value="Delete Appointment?" style="rhombus;whiteSpace=wrap;html=1;" vertex="1" parent="1">
          <mxGeometry x="322" y="930" width="112" height="80" as="geometry" />
        </mxCell>
        <mxCell id="ps8Fm_XayFuLvd-UC0Eb-58" value="" style="endArrow=classic;html=1;rounded=0;entryX=0.5;entryY=0;entryDx=0;entryDy=0;edgeStyle=orthogonalEdgeStyle;exitX=0;exitY=0.5;exitDx=0;exitDy=0;" edge="1" parent="1" source="ps8Fm_XayFuLvd-UC0Eb-63" target="ps8Fm_XayFuLvd-UC0Eb-57">
          <mxGeometry width="50" height="50" relative="1" as="geometry">
            <mxPoint x="448" y="870" as="sourcePoint" />
            <mxPoint x="378" y="920" as="targetPoint" />
            <Array as="points">
              <mxPoint x="378" y="876" />
            </Array>
          </mxGeometry>
        </mxCell>
        <mxCell id="ps8Fm_XayFuLvd-UC0Eb-131" style="edgeStyle=orthogonalEdgeStyle;rounded=0;orthogonalLoop=1;jettySize=auto;html=1;exitX=1;exitY=0.5;exitDx=0;exitDy=0;" edge="1" parent="1" source="ps8Fm_XayFuLvd-UC0Eb-59">
          <mxGeometry relative="1" as="geometry">
            <mxPoint x="790" y="970.3333333333335" as="targetPoint" />
          </mxGeometry>
        </mxCell>
        <mxCell id="ps8Fm_XayFuLvd-UC0Eb-59" value="Update Appointment?" style="rhombus;whiteSpace=wrap;html=1;" vertex="1" parent="1">
          <mxGeometry x="616" y="930" width="100" height="80" as="geometry" />
        </mxCell>
        <mxCell id="ps8Fm_XayFuLvd-UC0Eb-60" style="edgeStyle=orthogonalEdgeStyle;rounded=0;orthogonalLoop=1;jettySize=auto;html=1;exitX=1;exitY=0.5;exitDx=0;exitDy=0;entryX=1;entryY=0.75;entryDx=0;entryDy=0;" edge="1" parent="1" source="ps8Fm_XayFuLvd-UC0Eb-61" target="ps8Fm_XayFuLvd-UC0Eb-42">
          <mxGeometry relative="1" as="geometry">
            <mxPoint x="800" y="825" as="targetPoint" />
            <Array as="points">
              <mxPoint x="400" y="680" />
              <mxPoint x="400" y="720" />
              <mxPoint x="790" y="720" />
              <mxPoint x="790" y="1160" />
              <mxPoint x="280" y="1160" />
              <mxPoint x="280" y="695" />
            </Array>
          </mxGeometry>
        </mxCell>
        <mxCell id="ps8Fm_XayFuLvd-UC0Eb-61" value="Search patient?" style="rhombus;whiteSpace=wrap;html=1;" vertex="1" parent="1">
          <mxGeometry x="275" y="640" width="100" height="80" as="geometry" />
        </mxCell>
        <mxCell id="ps8Fm_XayFuLvd-UC0Eb-62" value="" style="endArrow=classic;html=1;rounded=0;exitX=0.5;exitY=1;exitDx=0;exitDy=0;edgeStyle=orthogonalEdgeStyle;entryX=0.5;entryY=0;entryDx=0;entryDy=0;" edge="1" parent="1" source="ps8Fm_XayFuLvd-UC0Eb-61" target="ps8Fm_XayFuLvd-UC0Eb-63">
          <mxGeometry width="50" height="50" relative="1" as="geometry">
            <mxPoint x="498" y="805" as="sourcePoint" />
            <mxPoint x="628" y="955" as="targetPoint" />
            <Array as="points">
              <mxPoint x="325" y="760" />
              <mxPoint x="520" y="760" />
            </Array>
          </mxGeometry>
        </mxCell>
        <mxCell id="ps8Fm_XayFuLvd-UC0Eb-63" value="Patient Details" style="rounded=0;whiteSpace=wrap;html=1;" vertex="1" parent="1">
          <mxGeometry x="460" y="846" width="120" height="60" as="geometry" />
        </mxCell>
        <mxCell id="ps8Fm_XayFuLvd-UC0Eb-64" value="" style="endArrow=classic;html=1;rounded=0;entryX=0.5;entryY=0;entryDx=0;entryDy=0;edgeStyle=orthogonalEdgeStyle;" edge="1" parent="1" target="ps8Fm_XayFuLvd-UC0Eb-59">
          <mxGeometry width="50" height="50" relative="1" as="geometry">
            <mxPoint x="580" y="875" as="sourcePoint" />
            <mxPoint x="568" y="920" as="targetPoint" />
            <Array as="points">
              <mxPoint x="580" y="876" />
              <mxPoint x="666" y="876" />
            </Array>
          </mxGeometry>
        </mxCell>
        <mxCell id="ps8Fm_XayFuLvd-UC0Eb-78" style="edgeStyle=orthogonalEdgeStyle;rounded=0;orthogonalLoop=1;jettySize=auto;html=1;exitX=0.5;exitY=1;exitDx=0;exitDy=0;" edge="1" parent="1" source="ps8Fm_XayFuLvd-UC0Eb-65">
          <mxGeometry relative="1" as="geometry">
            <mxPoint x="680" y="1160" as="targetPoint" />
          </mxGeometry>
        </mxCell>
        <mxCell id="ps8Fm_XayFuLvd-UC0Eb-65" value="Edit Appointment" style="shape=parallelogram;perimeter=parallelogramPerimeter;whiteSpace=wrap;html=1;fixedSize=1;" vertex="1" parent="1">
          <mxGeometry x="590" y="1070" width="160" height="60" as="geometry" />
        </mxCell>
        <mxCell id="ps8Fm_XayFuLvd-UC0Eb-77" style="edgeStyle=orthogonalEdgeStyle;rounded=0;orthogonalLoop=1;jettySize=auto;html=1;exitX=0.5;exitY=1;exitDx=0;exitDy=0;" edge="1" parent="1" source="ps8Fm_XayFuLvd-UC0Eb-66">
          <mxGeometry relative="1" as="geometry">
            <mxPoint x="378" y="1160" as="targetPoint" />
          </mxGeometry>
        </mxCell>
        <mxCell id="ps8Fm_XayFuLvd-UC0Eb-66" value="Delete appointment" style="shape=parallelogram;perimeter=parallelogramPerimeter;whiteSpace=wrap;html=1;fixedSize=1;" vertex="1" parent="1">
          <mxGeometry x="298" y="1070" width="160" height="60" as="geometry" />
        </mxCell>
        <mxCell id="ps8Fm_XayFuLvd-UC0Eb-67" value="" style="endArrow=classic;html=1;rounded=0;entryX=0.5;entryY=0;entryDx=0;entryDy=0;" edge="1" parent="1" target="ps8Fm_XayFuLvd-UC0Eb-66">
          <mxGeometry width="50" height="50" relative="1" as="geometry">
            <mxPoint x="378" y="1010" as="sourcePoint" />
            <mxPoint x="428" y="960" as="targetPoint" />
          </mxGeometry>
        </mxCell>
        <mxCell id="ps8Fm_XayFuLvd-UC0Eb-68" value="" style="endArrow=classic;html=1;rounded=0;" edge="1" parent="1">
          <mxGeometry width="50" height="50" relative="1" as="geometry">
            <mxPoint x="665.5" y="1010" as="sourcePoint" />
            <mxPoint x="666" y="1070" as="targetPoint" />
          </mxGeometry>
        </mxCell>
        <mxCell id="ps8Fm_XayFuLvd-UC0Eb-69" value="No" style="text;html=1;strokeColor=none;fillColor=none;align=center;verticalAlign=middle;whiteSpace=wrap;rounded=0;" vertex="1" parent="1">
          <mxGeometry x="359" y="655" width="60" height="30" as="geometry" />
        </mxCell>
        <mxCell id="ps8Fm_XayFuLvd-UC0Eb-70" value="No" style="text;html=1;strokeColor=none;fillColor=none;align=center;verticalAlign=middle;whiteSpace=wrap;rounded=0;" vertex="1" parent="1">
          <mxGeometry x="695" y="945" width="60" height="30" as="geometry" />
        </mxCell>
        <mxCell id="ps8Fm_XayFuLvd-UC0Eb-71" value="No" style="text;html=1;strokeColor=none;fillColor=none;align=center;verticalAlign=middle;whiteSpace=wrap;rounded=0;" vertex="1" parent="1">
          <mxGeometry x="414" y="945" width="60" height="30" as="geometry" />
        </mxCell>
        <mxCell id="ps8Fm_XayFuLvd-UC0Eb-72" value="Yes" style="text;html=1;strokeColor=none;fillColor=none;align=center;verticalAlign=middle;whiteSpace=wrap;rounded=0;" vertex="1" parent="1">
          <mxGeometry x="654" y="1005" width="60" height="27" as="geometry" />
        </mxCell>
        <mxCell id="ps8Fm_XayFuLvd-UC0Eb-73" value="Yes" style="text;html=1;strokeColor=none;fillColor=none;align=center;verticalAlign=middle;whiteSpace=wrap;rounded=0;" vertex="1" parent="1">
          <mxGeometry x="366" y="1003" width="60" height="30" as="geometry" />
        </mxCell>
        <mxCell id="ps8Fm_XayFuLvd-UC0Eb-74" value="Yes" style="text;html=1;strokeColor=none;fillColor=none;align=center;verticalAlign=middle;whiteSpace=wrap;rounded=0;" vertex="1" parent="1">
          <mxGeometry x="312" y="734" width="60" height="30" as="geometry" />
        </mxCell>
        <mxCell id="ps8Fm_XayFuLvd-UC0Eb-125" style="edgeStyle=orthogonalEdgeStyle;rounded=0;orthogonalLoop=1;jettySize=auto;html=1;exitX=0;exitY=0.5;exitDx=0;exitDy=0;entryX=0;entryY=0.75;entryDx=0;entryDy=0;" edge="1" parent="1" source="ps8Fm_XayFuLvd-UC0Eb-103" target="ps8Fm_XayFuLvd-UC0Eb-44">
          <mxGeometry relative="1" as="geometry">
            <Array as="points">
              <mxPoint x="-270" y="960" />
              <mxPoint x="-270" y="1150" />
              <mxPoint x="90" y="1150" />
              <mxPoint x="90" y="825" />
            </Array>
          </mxGeometry>
        </mxCell>
        <mxCell id="ps8Fm_XayFuLvd-UC0Eb-126" style="edgeStyle=orthogonalEdgeStyle;rounded=0;orthogonalLoop=1;jettySize=auto;html=1;exitX=0;exitY=0.5;exitDx=0;exitDy=0;entryX=0;entryY=0.75;entryDx=0;entryDy=0;" edge="1" parent="1" source="ps8Fm_XayFuLvd-UC0Eb-101" target="ps8Fm_XayFuLvd-UC0Eb-44">
          <mxGeometry relative="1" as="geometry">
            <Array as="points">
              <mxPoint x="-550" y="960" />
              <mxPoint x="-550" y="1150" />
              <mxPoint x="90" y="1150" />
              <mxPoint x="90" y="825" />
            </Array>
          </mxGeometry>
        </mxCell>
        <mxCell id="ps8Fm_XayFuLvd-UC0Eb-101" value="&amp;nbsp;Delete Check-up?" style="rhombus;whiteSpace=wrap;html=1;" vertex="1" parent="1">
          <mxGeometry x="-508" y="920" width="112" height="80" as="geometry" />
        </mxCell>
        <mxCell id="ps8Fm_XayFuLvd-UC0Eb-102" value="" style="endArrow=classic;html=1;rounded=0;entryX=0.5;entryY=0;entryDx=0;entryDy=0;edgeStyle=orthogonalEdgeStyle;exitX=0;exitY=0.5;exitDx=0;exitDy=0;" edge="1" parent="1" source="ps8Fm_XayFuLvd-UC0Eb-107" target="ps8Fm_XayFuLvd-UC0Eb-101">
          <mxGeometry width="50" height="50" relative="1" as="geometry">
            <mxPoint x="-382" y="860" as="sourcePoint" />
            <mxPoint x="-452" y="910" as="targetPoint" />
            <Array as="points">
              <mxPoint x="-452" y="866" />
            </Array>
          </mxGeometry>
        </mxCell>
        <mxCell id="ps8Fm_XayFuLvd-UC0Eb-103" value="&amp;nbsp;Update Check-up?" style="rhombus;whiteSpace=wrap;html=1;" vertex="1" parent="1">
          <mxGeometry x="-224" y="920" width="116" height="80" as="geometry" />
        </mxCell>
        <mxCell id="ps8Fm_XayFuLvd-UC0Eb-122" style="edgeStyle=orthogonalEdgeStyle;rounded=0;orthogonalLoop=1;jettySize=auto;html=1;exitX=0.5;exitY=1;exitDx=0;exitDy=0;entryX=0;entryY=0.75;entryDx=0;entryDy=0;" edge="1" parent="1" source="ps8Fm_XayFuLvd-UC0Eb-105" target="ps8Fm_XayFuLvd-UC0Eb-44">
          <mxGeometry relative="1" as="geometry">
            <Array as="points">
              <mxPoint x="10" y="900" />
              <mxPoint x="90" y="900" />
              <mxPoint x="90" y="825" />
            </Array>
          </mxGeometry>
        </mxCell>
        <mxCell id="ps8Fm_XayFuLvd-UC0Eb-105" value="Search patient?" style="rhombus;whiteSpace=wrap;html=1;" vertex="1" parent="1">
          <mxGeometry x="-40" y="770" width="100" height="80" as="geometry" />
        </mxCell>
        <mxCell id="ps8Fm_XayFuLvd-UC0Eb-106" value="" style="endArrow=classic;html=1;rounded=0;exitX=0;exitY=0.5;exitDx=0;exitDy=0;edgeStyle=orthogonalEdgeStyle;entryX=0.5;entryY=0;entryDx=0;entryDy=0;" edge="1" parent="1" source="ps8Fm_XayFuLvd-UC0Eb-105" target="ps8Fm_XayFuLvd-UC0Eb-107">
          <mxGeometry width="50" height="50" relative="1" as="geometry">
            <mxPoint x="-332" y="795" as="sourcePoint" />
            <mxPoint x="-202" y="945" as="targetPoint" />
            <Array as="points">
              <mxPoint x="-310" y="810" />
            </Array>
          </mxGeometry>
        </mxCell>
        <mxCell id="ps8Fm_XayFuLvd-UC0Eb-107" value="Patient Details" style="rounded=0;whiteSpace=wrap;html=1;" vertex="1" parent="1">
          <mxGeometry x="-370" y="836" width="120" height="60" as="geometry" />
        </mxCell>
        <mxCell id="ps8Fm_XayFuLvd-UC0Eb-108" value="" style="endArrow=classic;html=1;rounded=0;entryX=0.5;entryY=0;entryDx=0;entryDy=0;edgeStyle=orthogonalEdgeStyle;" edge="1" parent="1" target="ps8Fm_XayFuLvd-UC0Eb-103">
          <mxGeometry width="50" height="50" relative="1" as="geometry">
            <mxPoint x="-250" y="865" as="sourcePoint" />
            <mxPoint x="-262" y="910" as="targetPoint" />
            <Array as="points">
              <mxPoint x="-250" y="866" />
              <mxPoint x="-166" y="866" />
            </Array>
          </mxGeometry>
        </mxCell>
        <mxCell id="ps8Fm_XayFuLvd-UC0Eb-129" style="edgeStyle=orthogonalEdgeStyle;rounded=0;orthogonalLoop=1;jettySize=auto;html=1;exitX=0.5;exitY=1;exitDx=0;exitDy=0;" edge="1" parent="1" source="ps8Fm_XayFuLvd-UC0Eb-109">
          <mxGeometry relative="1" as="geometry">
            <mxPoint x="-160.33333333333326" y="1150" as="targetPoint" />
          </mxGeometry>
        </mxCell>
        <mxCell id="ps8Fm_XayFuLvd-UC0Eb-109" value="Edit Appointment" style="shape=parallelogram;perimeter=parallelogramPerimeter;whiteSpace=wrap;html=1;fixedSize=1;" vertex="1" parent="1">
          <mxGeometry x="-240" y="1060" width="160" height="60" as="geometry" />
        </mxCell>
        <mxCell id="ps8Fm_XayFuLvd-UC0Eb-130" style="edgeStyle=orthogonalEdgeStyle;rounded=0;orthogonalLoop=1;jettySize=auto;html=1;" edge="1" parent="1" source="ps8Fm_XayFuLvd-UC0Eb-110">
          <mxGeometry relative="1" as="geometry">
            <mxPoint x="-452" y="1150" as="targetPoint" />
          </mxGeometry>
        </mxCell>
        <mxCell id="ps8Fm_XayFuLvd-UC0Eb-110" value="Delete appointment" style="shape=parallelogram;perimeter=parallelogramPerimeter;whiteSpace=wrap;html=1;fixedSize=1;" vertex="1" parent="1">
          <mxGeometry x="-532" y="1060" width="160" height="60" as="geometry" />
        </mxCell>
        <mxCell id="ps8Fm_XayFuLvd-UC0Eb-111" value="" style="endArrow=classic;html=1;rounded=0;entryX=0.5;entryY=0;entryDx=0;entryDy=0;" edge="1" parent="1" target="ps8Fm_XayFuLvd-UC0Eb-110">
          <mxGeometry width="50" height="50" relative="1" as="geometry">
            <mxPoint x="-452" y="1000" as="sourcePoint" />
            <mxPoint x="-402" y="950" as="targetPoint" />
          </mxGeometry>
        </mxCell>
        <mxCell id="ps8Fm_XayFuLvd-UC0Eb-112" value="" style="endArrow=classic;html=1;rounded=0;" edge="1" parent="1">
          <mxGeometry width="50" height="50" relative="1" as="geometry">
            <mxPoint x="-164.5" y="1000" as="sourcePoint" />
            <mxPoint x="-164" y="1060" as="targetPoint" />
          </mxGeometry>
        </mxCell>
        <mxCell id="ps8Fm_XayFuLvd-UC0Eb-115" value="No" style="text;html=1;strokeColor=none;fillColor=none;align=center;verticalAlign=middle;whiteSpace=wrap;rounded=0;" vertex="1" parent="1">
          <mxGeometry x="-550" y="935" width="60" height="30" as="geometry" />
        </mxCell>
        <mxCell id="ps8Fm_XayFuLvd-UC0Eb-116" value="Yes" style="text;html=1;strokeColor=none;fillColor=none;align=center;verticalAlign=middle;whiteSpace=wrap;rounded=0;" vertex="1" parent="1">
          <mxGeometry x="-176" y="995" width="60" height="27" as="geometry" />
        </mxCell>
        <mxCell id="ps8Fm_XayFuLvd-UC0Eb-117" value="Yes" style="text;html=1;strokeColor=none;fillColor=none;align=center;verticalAlign=middle;whiteSpace=wrap;rounded=0;" vertex="1" parent="1">
          <mxGeometry x="-464" y="993" width="60" height="30" as="geometry" />
        </mxCell>
        <mxCell id="ps8Fm_XayFuLvd-UC0Eb-118" value="Yes" style="text;html=1;strokeColor=none;fillColor=none;align=center;verticalAlign=middle;whiteSpace=wrap;rounded=0;" vertex="1" parent="1">
          <mxGeometry x="-93" y="785" width="60" height="30" as="geometry" />
        </mxCell>
        <mxCell id="ps8Fm_XayFuLvd-UC0Eb-123" value="No" style="text;html=1;strokeColor=none;fillColor=none;align=center;verticalAlign=middle;whiteSpace=wrap;rounded=0;" vertex="1" parent="1">
          <mxGeometry x="-5" y="845" width="60" height="30" as="geometry" />
        </mxCell>
        <mxCell id="ps8Fm_XayFuLvd-UC0Eb-128" value="No" style="text;html=1;strokeColor=none;fillColor=none;align=center;verticalAlign=middle;whiteSpace=wrap;rounded=0;" vertex="1" parent="1">
          <mxGeometry x="-270" y="935" width="60" height="30" as="geometry" />
        </mxCell>
      </root>
    </mxGraphModel>
  </diagram>
</mxfile>
